# xmcd
#
# Track frame offsets:
#	150
#	27460
#	40894
#	53440
#	65203
#	79611
#	91426
#	112373
#	136823
#	158326
#	196763
#	219090
#	263862
#	287552
#	311424
#
# Disc length: 4415 seconds
#
# Revision: 0
# Processed by: cddbd v1.5PL3 Copyright (c) Steve Scherf et al.
# Submitted via: dBpowerAMP V4.0
#
DISCID=c9113d0f
DTITLE=Cuba Eterno - La Collection Cubana Cuba Eterno
DYEAR=1900
DGENRE=
TTITLE0=Guajira Guantanamera
TTITLE1=Rico Vacilon
TTITLE2=Babalu
TTITLE3=Siboney
TTITLE4=Ritmando El Cha Cha Cha
TTITLE5=La Engandora
TTITLE6=Cumbanchero
TTITLE7=Tres Lindas Cubanas
TTITLE8=Melodia Del Rio
TTITLE9=Mandinga
TTITLE10=Chan Chan
TTITLE11=Almendra
TTITLE12=Tumbo
TTITLE13=Chanchullo
TTITLE14=De Und Manera Espantosa
EXTD=
EXTT0=
EXTT1=
EXTT2=
EXTT3=
EXTT4=
EXTT5=
EXTT6=
EXTT7=
EXTT8=
EXTT9=
EXTT10=
EXTT11=
EXTT12=
EXTT13=
EXTT14=
PLAYORDER=
